<svg width="18" height="18" viewBox="0 0 18 18" fill="none" xmlns="http://www.w3.org/2000/svg">
<g clip-path="url(#clip0_38_12)">
<path d="M12.375 6.1875C12.375 6.03832 12.4343 5.89524 12.5398 5.78975C12.6452 5.68426 12.7883 5.625 12.9375 5.625H15.1875C15.3367 5.625 15.4798 5.68426 15.5852 5.78975C15.6907 5.89524 15.75 6.03832 15.75 6.1875V7.3125C15.75 7.46168 15.6907 7.60476 15.5852 7.71025C15.4798 7.81574 15.3367 7.875 15.1875 7.875H12.9375C12.7883 7.875 12.6452 7.81574 12.5398 7.71025C12.4343 7.60476 12.375 7.46168 12.375 7.3125V6.1875Z" fill="#3A5664"/>
<path d="M2.25 2.25C1.65326 2.25 1.08097 2.48705 0.65901 2.90901C0.237053 3.33097 0 3.90326 0 4.5L0 13.5C0 14.0967 0.237053 14.669 0.65901 15.091C1.08097 15.5129 1.65326 15.75 2.25 15.75H15.75C16.3467 15.75 16.919 15.5129 17.341 15.091C17.7629 14.669 18 14.0967 18 13.5V4.5C18 3.90326 17.7629 3.33097 17.341 2.90901C16.919 2.48705 16.3467 2.25 15.75 2.25H2.25ZM16.875 4.5V10.125H1.125V4.5C1.125 4.20163 1.24353 3.91548 1.4545 3.7045C1.66548 3.49353 1.95163 3.375 2.25 3.375H15.75C16.0484 3.375 16.3345 3.49353 16.5455 3.7045C16.7565 3.91548 16.875 4.20163 16.875 4.5ZM15.75 14.625H2.25C1.95163 14.625 1.66548 14.5065 1.4545 14.2955C1.24353 14.0845 1.125 13.7984 1.125 13.5V12.375H16.875V13.5C16.875 13.7984 16.7565 14.0845 16.5455 14.2955C16.3345 14.5065 16.0484 14.625 15.75 14.625Z" fill="#3A5664"/>
</g>
<defs>
<clipPath id="clip0_38_12">
<rect width="18" height="18" fill="white"/>
</clipPath>
</defs>
</svg>
