<svg width="18" height="18" viewBox="0 0 18 18" fill="none" xmlns="http://www.w3.org/2000/svg">
<g clip-path="url(#clip0_38_5)">
<path d="M8.99956 10.3833C8.14899 10.3833 7.45703 11.0753 7.45703 11.9258C7.45703 12.7764 8.14899 13.4684 8.99956 13.4684C9.85008 13.4684 10.5421 12.7764 10.5421 11.9258C10.5421 11.0753 9.85008 10.3833 8.99956 10.3833ZM8.99956 12.6174C8.61829 12.6174 8.30808 12.3072 8.30808 11.9258C8.30808 11.5446 8.61829 11.2344 8.99956 11.2344C9.38083 11.2344 9.69104 11.5446 9.69104 11.9258C9.69104 12.3072 9.38083 12.6174 8.99956 12.6174Z" fill="#3A5664"/>
<path d="M18 11.9257C18 11.3058 17.7245 10.7873 17.3239 10.5695V6.25502C17.7321 5.87402 17.9622 5.34775 17.9622 4.78058C17.9622 3.66607 17.0555 2.75933 15.941 2.75933C14.8265 2.75933 13.9197 3.66607 13.9197 4.78058C13.9197 5.27568 14.0951 5.73955 14.4112 6.1029L12.5052 8.57589L10.5338 6.09827C10.8474 5.73567 11.0212 5.2736 11.0212 4.78058C11.0212 3.66607 10.1145 2.75933 8.99997 2.75933C7.88547 2.75933 6.97873 3.66607 6.97873 4.78058C6.97873 5.27823 7.15596 5.74445 7.4751 6.10859L5.573 8.67743L3.58878 6.10285C3.90478 5.7395 4.08015 5.27562 4.08015 4.78052C4.08015 3.66602 3.17341 2.75928 2.05891 2.75928C0.944401 2.75928 0.037659 3.66602 0.037659 4.78052C0.037659 5.3477 0.267815 5.87397 0.676001 6.25497V10.5695C0.275421 10.7872 0 11.3057 0 11.9257C0 12.5457 0.275475 13.0642 0.676001 13.282V14.8156C0.676001 15.0506 0.86653 15.2412 1.10153 15.2412H16.8984C17.1334 15.2412 17.3239 15.0506 17.3239 14.8156V13.282C17.7245 13.0642 18 12.5457 18 11.9257ZM16.8969 12.6933C16.7101 12.6933 16.4929 12.358 16.4929 11.9257C16.4929 11.4935 16.7101 11.1581 16.8969 11.1581C17.0838 11.1581 17.301 11.4935 17.301 11.9257C17.301 12.358 17.0838 12.6933 16.8969 12.6933ZM1.10302 11.1581C1.28987 11.1581 1.50705 11.4935 1.50705 11.9257C1.50705 12.358 1.28987 12.6933 1.10302 12.6933C0.916157 12.6933 0.698979 12.358 0.698979 11.9257C0.698979 11.4935 0.916157 11.1581 1.10302 11.1581ZM1.52705 14.3901V13.2835C1.92928 13.0667 2.20608 12.5472 2.20608 11.9257C2.20608 11.3043 1.92923 10.7848 1.52705 10.568V6.05721C1.52705 5.92338 1.46407 5.79737 1.35711 5.717C1.05945 5.49339 0.88871 5.15211 0.88871 4.78063C0.88871 4.13537 1.41365 3.61044 2.05891 3.61044C2.70416 3.61044 3.2291 4.13537 3.2291 4.78063C3.2291 5.15217 3.05841 5.49344 2.76076 5.717C2.6698 5.7853 2.60996 5.88721 2.59464 5.99997C2.57932 6.11274 2.6098 6.22689 2.67927 6.31699L5.15237 9.52577C5.23295 9.63029 5.35742 9.69152 5.48939 9.69152H5.66667C5.80151 9.69152 5.92837 9.62758 6.00863 9.51923L8.38456 6.31045C8.52376 6.12253 8.48514 5.85742 8.29812 5.717C8.00047 5.49344 7.82978 5.15211 7.82978 4.78063C7.82978 4.13537 8.35472 3.61044 8.99997 3.61044C9.64523 3.61044 10.1702 4.13537 10.1702 4.78063C10.1702 5.15217 9.99948 5.49344 9.70183 5.717C9.60986 5.78599 9.54986 5.88923 9.53529 6.00322C9.52066 6.11721 9.55273 6.23226 9.62433 6.32215L12.1776 9.53099C12.2583 9.63247 12.3809 9.69162 12.5106 9.69162C12.5117 9.69162 12.5127 9.69162 12.5139 9.69162C12.6447 9.69056 12.7676 9.6295 12.8475 9.52588L15.3205 6.3171C15.39 6.22699 15.4205 6.11279 15.4052 6.00008C15.3899 5.88732 15.3301 5.7854 15.2391 5.71711C14.9414 5.49349 14.7707 5.15222 14.7707 4.78074C14.7707 4.13548 15.2956 3.61054 15.9409 3.61054C16.5861 3.61054 17.1111 4.13548 17.1111 4.78074C17.1111 5.15227 16.9403 5.49355 16.6426 5.71711C16.5356 5.79748 16.4727 5.92349 16.4727 6.05731V10.5682C16.0705 10.785 15.7936 11.3044 15.7936 11.9258C15.7936 12.5474 16.0705 13.0668 16.4727 13.2836V14.3902L1.52705 14.3901Z" fill="#3A5664"/>
</g>
<defs>
<clipPath id="clip0_38_5">
<rect width="18" height="18" fill="white"/>
</clipPath>
</defs>
</svg>
