<svg width="18" height="18" viewBox="0 0 18 18" fill="none" xmlns="http://www.w3.org/2000/svg">
<g clip-path="url(#clip0_29_87)">
<path d="M2.25 2.25C1.65326 2.25 1.08097 2.48705 0.65901 2.90901C0.237053 3.33097 0 3.90326 0 4.5L0 13.5113C0.00297396 14.106 0.241339 14.6754 0.662974 15.095C1.08461 15.5145 1.65521 15.75 2.25 15.75H8.4375C8.58668 15.75 8.72976 15.6907 8.83525 15.5852C8.94074 15.4798 9 15.3367 9 15.1875C9 15.0383 8.94074 14.8952 8.83525 14.7898C8.72976 14.6843 8.58668 14.625 8.4375 14.625H2.25C2.00236 14.625 1.76163 14.5434 1.56514 14.3926C1.36866 14.2419 1.22739 14.0306 1.16325 13.7914L7.50825 9.8865L9 10.7809L16.875 6.05587V9.5625C16.875 9.71168 16.9343 9.85476 17.0398 9.96025C17.1452 10.0657 17.2883 10.125 17.4375 10.125C17.5867 10.125 17.7298 10.0657 17.8352 9.96025C17.9407 9.85476 18 9.71168 18 9.5625V4.5C18 3.90326 17.7629 3.33097 17.341 2.90901C16.919 2.48705 16.3467 2.25 15.75 2.25H2.25ZM6.4215 9.234L1.125 12.4931V6.05587L6.4215 9.234ZM1.125 4.74413V4.5C1.125 4.20163 1.24353 3.91548 1.4545 3.7045C1.66548 3.49353 1.95163 3.375 2.25 3.375H15.75C16.0484 3.375 16.3345 3.49353 16.5455 3.7045C16.7565 3.91548 16.875 4.20163 16.875 4.5V4.74413L9 9.46912L1.125 4.74413Z" fill="#3A5664"/>
<path d="M18 14.0625C18 15.1068 17.5852 16.1083 16.8467 16.8467C16.1083 17.5852 15.1068 18 14.0625 18C13.0182 18 12.0167 17.5852 11.2783 16.8467C10.5398 16.1083 10.125 15.1068 10.125 14.0625C10.125 13.0182 10.5398 12.0167 11.2783 11.2783C12.0167 10.5398 13.0182 10.125 14.0625 10.125C15.1068 10.125 16.1083 10.5398 16.8467 11.2783C17.5852 12.0167 18 13.0182 18 14.0625ZM14.0625 11.8125C13.9133 11.8125 13.7702 11.8718 13.6648 11.9773C13.5593 12.0827 13.5 12.2258 13.5 12.375V13.5H12.375C12.2258 13.5 12.0827 13.5593 11.9773 13.6648C11.8718 13.7702 11.8125 13.9133 11.8125 14.0625C11.8125 14.2117 11.8718 14.3548 11.9773 14.4602C12.0827 14.5657 12.2258 14.625 12.375 14.625H13.5V15.75C13.5 15.8992 13.5593 16.0423 13.6648 16.1477C13.7702 16.2532 13.9133 16.3125 14.0625 16.3125C14.2117 16.3125 14.3548 16.2532 14.4602 16.1477C14.5657 16.0423 14.625 15.8992 14.625 15.75V14.625H15.75C15.8992 14.625 16.0423 14.5657 16.1477 14.4602C16.2532 14.3548 16.3125 14.2117 16.3125 14.0625C16.3125 13.9133 16.2532 13.7702 16.1477 13.6648C16.0423 13.5593 15.8992 13.5 15.75 13.5H14.625V12.375C14.625 12.2258 14.5657 12.0827 14.4602 11.9773C14.3548 11.8718 14.2117 11.8125 14.0625 11.8125Z" fill="#3A5664"/>
</g>
<defs>
<clipPath id="clip0_29_87">
<rect width="18" height="18" fill="white"/>
</clipPath>
</defs>
</svg>
