<svg width="18" height="18" viewBox="0 0 18 18" fill="none" xmlns="http://www.w3.org/2000/svg">
<g clip-path="url(#clip0_38_2)">
<path d="M9 4.5V6.75L12 3.75L9 0.75V3C5.685 3 3 5.685 3 9C3 10.1775 3.345 11.2725 3.93 12.195L5.025 11.1C4.6875 10.4775 4.5 9.7575 4.5 9C4.5 6.5175 6.5175 4.5 9 4.5ZM14.07 5.805L12.975 6.9C13.305 7.53 13.5 8.2425 13.5 9C13.5 11.4825 11.4825 13.5 9 13.5V11.25L6 14.25L9 17.25V15C12.315 15 15 12.315 15 9C15 7.8225 14.655 6.7275 14.07 5.805Z" fill="#3A5664"/>
</g>
<defs>
<clipPath id="clip0_38_2">
<rect width="18" height="18" fill="white"/>
</clipPath>
</defs>
</svg>
